<svg width="26" height="26" viewBox="0 0 26 26" fill="none" xmlns="http://www.w3.org/2000/svg">
<g id="icons / duotone / package">
<path id="Vector" opacity="0.2" d="M13 13.1064V23.1562C12.8688 23.1557 12.7398 23.1221 12.625 23.0586L4.03125 18.3535C3.90854 18.2864 3.80611 18.1875 3.73464 18.0673C3.66318 17.947 3.62532 17.8098 3.625 17.6699V8.33008C3.62531 8.22066 3.6486 8.11254 3.69336 8.0127L13 13.1064Z" fill="white"/>
<path id="Vector_2" d="M22.3437 6.95996L13.75 2.25781C13.5204 2.13094 13.2623 2.06439 13 2.06439C12.7377 2.06439 12.4796 2.13094 12.25 2.25781L3.65625 6.96192C3.41083 7.0962 3.20596 7.29391 3.06304 7.5344C2.92012 7.77489 2.84439 8.04935 2.84375 8.3291V17.6689C2.84439 17.9487 2.92012 18.2232 3.06304 18.4636C3.20596 18.7041 3.41083 18.9019 3.65625 19.0361L12.25 23.7402C12.4796 23.8671 12.7377 23.9337 13 23.9337C13.2623 23.9337 13.5204 23.8671 13.75 23.7402L22.3437 19.0361C22.5892 18.9019 22.794 18.7041 22.937 18.4636C23.0799 18.2232 23.1556 17.9487 23.1562 17.6689V8.33008C23.1561 8.04983 23.0807 7.77476 22.9377 7.53371C22.7948 7.29265 22.5896 7.09448 22.3437 6.95996ZM13 3.625L20.8457 7.92188L17.9385 9.51367L10.0918 5.2168L13 3.625ZM13 12.2188L5.1543 7.92188L8.46484 6.10938L16.3105 10.4063L13 12.2188ZM4.40625 9.28906L12.2188 13.5645V21.9424L4.40625 17.6699V9.28906ZM21.5938 17.666L13.7812 21.9424V13.5684L16.9062 11.8584V15.3438C16.9062 15.551 16.9886 15.7497 17.1351 15.8962C17.2816 16.0427 17.4803 16.125 17.6875 16.125C17.8947 16.125 18.0934 16.0427 18.2399 15.8962C18.3864 15.7497 18.4688 15.551 18.4688 15.3438V11.0029L21.5938 9.28906V17.665V17.666Z" fill="white"/>
</g>
</svg>
